<svg xmlns="http://www.w3.org/2000/svg" width="2444" height="2445.333" preserveAspectRatio="xMidYMid meet" version="1.0" viewBox="0 0 1833 1834"><g fill="#000" stroke="none"><path d="M9003 14236 c-391 -142 -764 -531 -1043 -1086 -37 -74 -80 -164 -95 -200 -15 -36 -31 -69 -36 -75 -6 -6 -230 -12 -612 -15 l-602 -5 -47 -23 c-26 -13 -66 -44 -87 -69 -75 -85 -73 -57 -68 -841 5 -717 7 -765 51 -1059 99 -653 328 -1140 799 -1701 105 -125 231 -205 417 -268 l85 -29 875 -5 875 -5 58 -23 c69 -28 148 -89 182 -140 86 -131 225 -635 269 -980 86 -670 -10 -1418 -237 -1857 -73 -141 -185 -225 -329 -245 -86 -13 -518 -12 -598 1 -147 23 -253 103 -328 245 -256 494 -338 1364 -196 2094 13 69 24 139 24 155 0 43 -39 105 -80 126 -33 18 -75 19 -850 19 -777 0 -817 -1 -850 -19 -56 -30 -76 -83 -104 -276 -75 -514 -79 -812 -15 -1255 125 -864 478 -1603 1051 -2196 102 -105 132 -130 196 -162 l76 -37 1375 0 1376 0 69 33 c78 37 188 138 335 307 574 663 882 1435 962 2415 29 364 -54 1051 -182 1486 -134 461 -360 893 -684 1309 -148 191 -187 230 -272 272 l-77 38 -1239 5 -1239 5 -30 35 c-72 86 -195 319 -258 490 -73 198 -144 562 -121 623 22 56 28 57 366 57 304 0 311 1 360 24 90 42 132 104 175 260 60 219 248 533 355 593 90 50 185 38 265 -34 111 -99 261 -372 323 -586 39 -133 65 -174 142 -222 l48 -30 330 -5 329 -5 25 -29 c24 -28 25 -34 18 -110 -4 -45 -11 -103 -16 -130 -12 -65 -10 -164 4 -203 24 -63 73 -120 129 -147 l54 -27 495 3 c551 3 528 1 602 75 56 55 74 106 93 259 15 117 18 255 21 857 l4 717 -24 53 c-29 64 -77 113 -137 141 -44 20 -61 21 -627 24 -438 2 -584 6 -591 15 -5 7 -34 66 -64 132 -254 564 -672 1025 -1088 1201 -176 74 -250 79 -387 30z" transform="translate(0.000000,1834.000000) scale(0.100000,-0.100000)"/></g></svg>